<?xml version="1.0"?>
<svg version="1.1" xmlns="http://www.w3.org/2000/svg" width="150px" height="70px" style="">
  <path fill="#"
    d="M20.4892578125,26.552734375q0-1.1474609375,0.28076171875-1.67236328125t0.8056640625-0.732421875t1.26953125-0.15869140625t1.74560546875,0.048828125q2.5390625,0,5.126953125,0.78125t4.6630859375,2.28271484375t3.3447265625,3.69873046875t1.26953125,5.0537109375q0,1.904296875-0.54931640625,3.60107421875t-1.55029296875,3.173828125t-2.34375,2.69775390625t-2.9541015625,2.1240234375q0.6591796875,0.6591796875,1.708984375,2.33154296875t2.0751953125,3.564453125t1.81884765625,3.67431640625t0.93994140625,2.685546875l-0.29296875,0.439453125q-0.6591796875,0.390625-1.5869140625,0.4150390625q-0.439453125,0-1.1474609375-0.10986328125t-0.9033203125-0.64697265625q-1.0009765625-2.8076171875-2.18505859375-5.7861328125t-2.91748046875-5.37109375l0-0.048828125q-0.6103515625,0.244140625-1.20849609375,0.47607421875t-1.20849609375,0.42724609375q0.1953125,2.7099609375,0.40283203125,5.33447265625t0.20751953125,5.31005859375q0,0.341796875-0.32958984375,0.54931640625t-0.74462890625,0.32958984375t-0.84228515625,0.1708984375t-0.69580078125,0.048828125q-0.244140625,0-0.69580078125-0.048828125t-0.86669921875-0.1708984375t-0.72021484375-0.35400390625t-0.30517578125-0.62255859375q0-2.7099609375-0.1220703125-5.40771484375t-0.2685546875-5.38330078125q-0.7568359375-0.48828125-0.7568359375-1.26953125q0-0.6103515625,0.5859375-0.830078125q-0.29296875-5.1513671875-0.67138671875-10.2783203125t-0.37841796875-10.3271484375z M24.908203125,25.7958984375q0.341796875,5.2978515625,0.76904296875,10.4736328125t0.81787109375,10.4736328125q1.708984375-0.48828125,3.18603515625-1.69677734375t2.55126953125-2.72216796875t1.67236328125-3.2958984375t0.59814453125-3.5400390625q0-1.953125-0.78125-3.74755859375t-2.0751953125-3.13720703125q-1.318359375-1.3427734375-3.02734375-2.099609375q-1.513671875-0.6591796875-3.173828125-0.6591796875l-0.439453125,0z M43.991943359375,50.8935546875q0-1.66015625,0.45166015625-3.1982421875t1.35498046875-2.74658203125t2.25830078125-1.9287109375t3.13720703125-0.72021484375q1.0986328125,0,2.42919921875,0.32958984375t2.50244140625,0.9765625t1.953125,1.64794921875t0.78125,2.294921875q0,0.6103515625-0.20751953125,0.927734375t-0.84228515625,0.3173828125l-0.2685546875-0.048828125q0.7080078125,1.904296875,1.220703125,3.90625t1.0009765625,4.00390625q0.1953125,0.390625,0.29296875,0.69580078125t0.09765625,0.59814453125q0,0.390625-0.2197265625,0.64697265625t-0.57373046875,0.37841796875t-0.732421875,0.1708984375t-0.67138671875,0.048828125q-1.0498046875,0-1.57470703125-0.3662109375t-0.7568359375-1.0009765625t-0.28076171875-1.42822265625t-0.1953125-1.59912109375q-0.29296875,0.9521484375-0.76904296875,1.85546875t-1.123046875,1.62353515625t-1.52587890625,1.1474609375t-1.9775390625,0.42724609375q-1.611328125,0-2.7099609375-0.927734375t-1.77001953125-2.28271484375t-0.9765625-2.89306640625t-0.30517578125-2.8564453125z M47.458740234375,50.5517578125q0,0.9033203125,0.1220703125,1.904296875t0.40283203125,1.9775390625t0.72021484375,1.84326171875t1.0986328125,1.52587890625q1.1962890625-1.2939453125,1.77001953125-3.1494140625t1.025390625-3.57666015625t1.025390625-2.9541015625t1.77001953125-1.23291015625q0.7568359375,0,1.26953125,0.2685546875q-0.244140625-0.6103515625-0.8056640625-1.18408203125t-1.25732421875-1.0498046875t-1.4404296875-0.78125t-1.40380859375-0.30517578125q-0.1953125,0-0.45166015625,0.06103515625t-0.40283203125,0.01220703125q-1.0009765625,0.29296875-1.64794921875,1.01318359375t-1.0498046875,1.69677734375t-0.57373046875,2.001953125t-0.1708984375,1.9287109375z M65.15087890625,50.6005859375q0-1.904296875,0.40283203125-3.45458984375t1.28173828125-2.62451171875t2.30712890625-1.67236328125t3.47900390625-0.59814453125q1.1474609375,0,2.34375,0.30517578125t2.05078125,1.13525390625q0-0.48828125,0.09765625-2.01416015625t0.244140625-3.55224609375t0.30517578125-4.248046875t0.28076171875-4.1259765625t0.2197265625-3.1982421875t0.146484375-1.46484375q0.244140625-0.7080078125,0.9033203125-0.84228515625t1.2451171875-0.13427734375q1.5380859375,0,1.89208984375,0.48828125t0.35400390625,1.953125q0,5.3466796875-0.47607421875,10.64453125t-0.47607421875,10.64453125q0,3.4423828125,0.13427734375,6.92138671875t0.96435546875,6.84814453125l0.2685546875,0.244140625l0.146484375,0.439453125l-0.3662109375,0.5615234375q-0.927734375,0.5859375-2.1484375,0.5859375l-0.09765625,0q-1.2451171875,0-2.294921875-0.5859375q-0.390625-0.244140625-0.64697265625-1.45263671875t-0.40283203125-2.6611328125t-0.2197265625-2.79541015625t-0.1220703125-1.904296875q-0.8544921875,1.953125-2.33154296875,3.35693359375t-3.72314453125,1.40380859375q-1.7578125,0-2.880859375-0.7568359375t-1.74560546875-1.9287109375t-0.87890625-2.62451171875t-0.25634765625-2.89306640625z M68.10498046875,50.7470703125q0,0.5615234375,0.13427734375,1.66015625t0.42724609375,2.197265625t0.81787109375,1.953125t1.37939453125,0.8544921875q1.1474609375-0.5615234375,2.0751953125-1.86767578125t1.59912109375-2.880859375t1.0498046875-3.1494140625t0.37841796875-2.72216796875q0-1.4404296875-1.0498046875-2.392578125t-2.5146484375-0.9521484375q-0.439453125,0-0.89111328125,0.1708984375t-0.84228515625,0.390625q-0.9033203125,0.8544921875-1.40380859375,1.55029296875t-0.7568359375,1.4404296875t-0.32958984375,1.64794921875t-0.0732421875,2.099609375z M88.262939453125,51.89453125q0-1.708984375,0.37841796875-4.0283203125t1.28173828125-4.39453125t2.38037109375-3.52783203125t3.72314453125-1.45263671875q2.099609375,0,3.1494140625,1.20849609375t1.0498046875,3.25927734375q0,1.3427734375-0.50048828125,2.94189453125t-1.42822265625,3.02734375t-2.197265625,2.38037109375t-2.83203125,0.9521484375l-0.634765625-0.048828125q0,0.6591796875,0.1953125,1.77001953125t0.57373046875,2.20947265625t0.9765625,1.9287109375t1.45263671875,0.830078125q1.2451171875,0,2.392578125-1.0009765625t2.1728515625-2.2216796875t1.904296875-2.2216796875t1.611328125-1.0009765625q0.390625,0,0.8056640625,0.1220703125t0.4638671875,0.68359375q0,0.341796875-0.18310546875,0.5615234375t-0.32958984375,0.48828125q-0.7568359375,1.2939453125-1.64794921875,2.4658203125t-2.01416015625,2.1240234375t-2.45361328125,1.50146484375t-2.94189453125,0.54931640625q-2.099609375,0-3.4912109375-0.74462890625t-2.24609375-2.001953125t-1.23291015625-2.9052734375t-0.37841796875-3.45458984375z M92.633056640625,50.0390625l0.68359375,0.6103515625q0.48828125,0.439453125,0.9765625,0.1953125t0.87890625-0.89111328125t0.72021484375-1.59912109375t0.5859375-1.953125t0.37841796875-1.953125t0.1220703125-1.5869140625l0-0.830078125t-0.0732421875-0.87890625t-0.25634765625-0.69580078125t-0.57373046875-0.35400390625q-0.1220703125-0.0244140625-0.2197265625-0.0244140625q-0.830078125,0-1.416015625,1.0498046875q-0.634765625,1.171875-1.025390625,2.84423828125t-0.5615234375,3.43017578125t-0.2197265625,2.63671875z M107.6640625,41.8115234375q0-0.1953125,0.23193359375-0.35400390625t0.52490234375-0.23193359375t0.59814453125-0.09765625t0.45166015625-0.0244140625q1.0986328125,0,1.8798828125,0.9765625t1.35498046875,2.50244140625t0.9765625,3.369140625t0.76904296875,3.67431640625t0.72021484375,3.35693359375t0.79345703125,2.35595703125q0.7568359375-1.4892578125,1.37939453125-3.5888671875t1.1474609375-4.345703125t0.927734375-4.43115234375t0.64697265625-3.82080078125q0.09765625-0.439453125,0.6103515625-0.54931640625t0.8544921875-0.10986328125q0.5615234375,0,0.9765625,0.15869140625t0.4150390625,0.69580078125q0,0.9033203125-0.2197265625,2.45361328125t-0.59814453125,3.47900390625t-0.87890625,3.955078125t-1.07421875,3.84521484375t-1.1962890625,3.22265625t-1.23291015625,1.98974609375q-0.29296875,0.341796875-0.91552734375,0.47607421875t-1.03759765625,0.13427734375q-1.4404296875,0-2.392578125-0.7568359375l0,0.048828125q-1.4892578125-1.3916015625-2.197265625-3.3935546875t-1.025390625-4.1748046875t-0.57373046875-4.3212890625t-0.86669921875-3.90625q-0.09765625-0.1953125-0.244140625-0.57373046875t-0.341796875-0.7568359375t-0.32958984375-0.72021484375t-0.13427734375-0.537109375z" />
  <path fill="#" d="" />
</svg>